<svg width="1024" height="1024" viewBox="0 0 1024 1024" fill="none" xmlns="http://www.w3.org/2000/svg">
<g clip-path="url(#clip0_81_5)">
<rect x="192" y="832" width="100" height="192" fill="black"/>
<rect x="192" width="100" height="192" fill="black"/>
<path d="M298.5 0C631.804 0 902 229.23 902 512C902 794.77 631.804 1024 298.5 1024C-34.8038 1024 -305 794.77 -305 512C-305 229.23 -34.8038 0 298.5 0ZM468 421.51L558.755 512.265L468 603.02L558.51 693.529L739.529 512.51L739.284 512.265L739.529 512.02L558.51 331L468 421.51ZM156 512.02L156.245 512.265L156 512.51L337.02 693.528L427.529 603.02L336.774 512.265L427.529 421.51L337.02 331L156 512.02Z" fill="black"/>
<path d="M192 475.711L155.5 512.211L192 548.71V1024H0V0H192V475.711Z" fill="black"/>
</g>
<defs>
<clipPath id="clip0_81_5">
<rect width="1024" height="1024" fill="white"/>
</clipPath>
</defs>
</svg>
